<?xml version="1.0" encoding="utf-8"?>
<!-- Generator: Adobe Illustrator 26.5.0, SVG Export Plug-In . SVG Version: 6.00 Build 0)  -->
<svg version="1.1" id="Layer_1" xmlns="http://www.w3.org/2000/svg" xmlns:xlink="http://www.w3.org/1999/xlink" x="0px" y="0px"
	 viewBox="0 0 131.2515717 131.2731476" style="enable-background:new 0 0 131.2515717 131.2731476;" xml:space="preserve">
<style type="text/css">
	.st0{fill:#DA3F96;}
	.st1{fill:url(#SVGID_1_);}
	.st2{fill:url(#SVGID_00000116224216966052873190000016159160178823230139_);}
	.st3{fill:url(#SVGID_00000124130098865101197060000003480239860308513442_);}
	.st4{fill:url(#SVGID_00000020376902749617383020000000721821620906274702_);}
	.st5{fill:url(#SVGID_00000013182344303981223230000007193408529088913589_);}
	.st6{fill:url(#SVGID_00000016797242090528533450000007346168504590231464_);}
	.st7{fill:url(#SVGID_00000055674806378440463050000012451732686574385297_);}
	.st8{fill:url(#SVGID_00000057134711130372236880000010108059872351656872_);}
</style>
<g>
	<path class="st0" d="M89.6817093,48.4136314l-8.9066391,8.9066238l-6.84375-6.8437653l8.9066162-8.9066238
		c9.4906158-9.4905968,9.4901428-24.933218-0.0004654-34.4238205c-9.490593-9.4906044-24.9327545-9.4906044-34.4233704,0
		c-9.4905968,9.4906044-9.4910469,24.9332237-0.0004501,34.4238205L57.320282,50.47649l-6.8437653,6.8437653l-8.90662-8.9066238
		c-9.4905968-9.4906006-24.9327717-9.4906006-34.4233665,0c-9.4906158,9.4906044-9.4910641,24.9332237-0.0004663,34.4238243
		c9.490613,9.4906082,24.9336853,9.4906082,34.4242859,0l8.9061699-8.9061661l6.8437653,6.8437653l-8.9061813,8.9061661
		c-9.4905968,9.4906082-9.4910469,24.9332275-0.0004501,34.4238205c9.490612,9.4906006,24.9332237,9.4901581,34.4238243-0.0004501
		c9.4906082-9.490593,9.4906082-24.9327621,0-34.4233704l-8.9061508-8.9061661l6.84375-6.8437653l8.9061737,8.9061661
		c9.4906006,9.4906082,24.9332199,9.4901505,34.4238358-0.0004501s9.4906158-24.9327698,0-34.4233742
		S99.1722794,38.9230309,89.6817093,48.4136314z M56.7196312,15.4515629c4.9106712-4.9106722,12.9016533-4.9106722,17.8123436,0
		c4.9111099,4.9111214,4.9111099,12.9021187,0.0004425,17.8127918l-8.9066162,8.9066238l-8.9066353-8.9066238
		C51.8084984,28.3536816,51.8084984,20.3626842,56.7196312,15.4515629z M15.4515953,74.5319366
		c-4.9106836-4.9106674-4.9106836-12.9016647,0.0004492-17.8127823c4.9106665-4.9106789,12.9016523-4.9106789,17.812336,0
		l8.90662,8.9066162l-8.9061737,8.9061661C28.3536968,79.4430695,20.362711,79.4430695,15.4515953,74.5319366z
		 M74.5319748,115.7990799c-4.9111404,4.9111176-12.9021263,4.9111176-17.812809,0.0004425
		c-4.9106674-4.9106598-4.9106674-12.9016647,0.0004654-17.8127899l8.9061699-8.9061737l8.9061737,8.9061737
		C79.4426346,102.8973999,79.4426346,110.8884125,74.5319748,115.7990799z M58.7820358,65.6257706l6.8437653-6.8437614
		l6.84375,6.8437614l-6.84375,6.8437653L58.7820358,65.6257706z M115.7995377,74.5314865
		c-4.9110947,4.9111252-12.9021072,4.9111252-17.812767,0.0004501l-8.9061661-8.9061661l8.906601-8.9066162
		c4.9106598-4.9106789,12.9016724-4.9106789,17.8123322,0C120.7102432,61.6298141,120.7102432,69.6208115,115.7995377,74.5314865z"
		/>
	<g>
		
			<linearGradient id="SVGID_1_" gradientUnits="userSpaceOnUse" x1="1054.9044189" y1="-372.7577515" x2="1030.5678711" y2="-414.90979" gradientTransform="matrix(0.7071068 0.7071068 0.7071068 -0.7071068 -393.6289062 -993.0513306)">
			<stop  offset="0.3975166" style="stop-color:#A0278F;stop-opacity:0"/>
			<stop  offset="0.6999999" style="stop-color:#A0278F"/>
		</linearGradient>
		<path class="st1" d="M48.4239388,41.5419998c-9.4906158-9.4905968-9.4906158-24.933672,0-34.4242706
			c9.4905968-9.4906044,24.9332237-9.4901524,34.4238243,0.0004492c9.4905853,9.4906073,9.4905853,24.9327774,0,34.4233742
			l-8.3055267-8.3055115c4.910675-4.910677,4.910675-12.9016743,0-17.8123398
			c-4.9111176-4.9111242-12.9021225-4.9111242-17.8127861-0.0004549c-4.9111328,4.9111223-4.9111328,12.9021196,0,17.8132439
			L48.4239388,41.5419998z"/>
		
			<linearGradient id="SVGID_00000123410372265139359110000015685167623600176783_" gradientUnits="userSpaceOnUse" x1="1044.1464844" y1="-413.1164856" x2="1102.5076904" y2="-413.1164856" gradientTransform="matrix(0.7071068 0.7071068 0.7071068 -0.7071068 -393.6289062 -993.0513306)">
			<stop  offset="9.590021e-08" style="stop-color:#A0278F"/>
			<stop  offset="0.5499999" style="stop-color:#A0278F;stop-opacity:0"/>
		</linearGradient>
		<polygon style="fill:url(#SVGID_00000123410372265139359110000015685167623600176783_);" points="84.9376907,61.4447136 
			84.9192047,61.426239 56.7294846,33.2365036 48.4239502,41.5420303 76.6137009,69.7317581 76.6321716,69.7502289 
			89.6915436,82.8096161 97.9970703,74.504097 		"/>
		
			<linearGradient id="SVGID_00000025402275433007788240000004650514729143580550_" gradientUnits="userSpaceOnUse" x1="505.2393188" y1="433.8326721" x2="480.902832" y2="391.680603" gradientTransform="matrix(-0.7071068 0.7071068 0.7071068 0.7071068 165.1763153 -575.2841187)">
			<stop  offset="0.3975166" style="stop-color:#A0278F;stop-opacity:0"/>
			<stop  offset="0.6999999" style="stop-color:#A0278F"/>
		</linearGradient>
		<path style="fill:url(#SVGID_00000025402275433007788240000004650514729143580550_);" d="M89.6004944,48.442379
			c9.4906158-9.4906006,24.9336472-9.4906006,34.424263,0s9.4901505,24.9332161-0.0004349,34.4238319
			c-9.4906158,9.490593-24.932785,9.490593-34.4234009,0l8.3055344-8.3055267c4.9106674,4.910675,12.9016647,4.910675,17.8123398,0
			c4.9111252-4.9111176,4.9111252-12.9021111,0.0004654-17.8127861c-4.9111404-4.9111252-12.9021378-4.9111252-17.8132782,0
			L89.6004944,48.442379z"/>
		
			<linearGradient id="SVGID_00000142889933544582406520000012570418650923274653_" gradientUnits="userSpaceOnUse" x1="494.4814453" y1="393.473938" x2="552.8425903" y2="393.473938" gradientTransform="matrix(-0.7071068 0.7071068 0.7071068 0.7071068 165.1763153 -575.2841187)">
			<stop  offset="9.590021e-08" style="stop-color:#A0278F"/>
			<stop  offset="0.5499999" style="stop-color:#A0278F;stop-opacity:0"/>
		</linearGradient>
		<polygon style="fill:url(#SVGID_00000142889933544582406520000012570418650923274653_);" points="69.6977768,84.956131 
			69.7162476,84.9376602 97.905983,56.7479324 89.6004562,48.4424095 61.4107285,76.6321411 61.3922577,76.6506195 
			48.3328705,89.7099991 56.6383896,98.0155106 		"/>
		
			<linearGradient id="SVGID_00000003063598516513024740000006730360469612884873_" gradientUnits="userSpaceOnUse" x1="-244.0944672" y1="-122.7468491" x2="-268.4309387" y2="-164.8989258" gradientTransform="matrix(-0.7071068 -0.7071068 -0.7071068 0.7071068 -216.8459473 28.9875412)">
			<stop  offset="0.3975166" style="stop-color:#A0278F;stop-opacity:0"/>
			<stop  offset="0.6999999" style="stop-color:#A0278F"/>
		</linearGradient>
		<path style="fill:url(#SVGID_00000003063598516513024740000006730360469612884873_);" d="M82.8477631,89.709549
			c9.4905853,9.4906006,9.4905853,24.9336777,0,34.4242706c-9.4906006,9.4906006-24.9332275,9.4901581-34.4238243-0.0004501
			c-9.4906158-9.490593-9.4906158-24.9327621,0-34.4233704l8.3055115,8.3055115
			c-4.9106827,4.9106674-4.9106827,12.90168,0,17.8123474c4.9111176,4.9111176,12.9021263,4.9111176,17.8127861,0.0004425
			c4.9111176-4.9111099,4.9111176-12.9021225,0-17.8132401L82.8477631,89.709549z"/>
		
			<linearGradient id="SVGID_00000143582671554034878100000005201104371245022378_" gradientUnits="userSpaceOnUse" x1="-254.852356" y1="-163.1056061" x2="-196.4911499" y2="-163.1056061" gradientTransform="matrix(-0.7071068 -0.7071068 -0.7071068 0.7071068 -216.8459473 28.9875412)">
			<stop  offset="9.590021e-08" style="stop-color:#A0278F"/>
			<stop  offset="0.5499999" style="stop-color:#A0278F;stop-opacity:0"/>
		</linearGradient>
		<polygon style="fill:url(#SVGID_00000143582671554034878100000005201104371245022378_);" points="46.3340034,69.8068314 
			46.3524742,69.8253021 74.5422058,98.0150375 82.8477402,89.7095261 54.6579933,61.5197945 54.6395187,61.5013237 
			41.5801353,48.4419327 33.2746162,56.7474556 		"/>
		
			<linearGradient id="SVGID_00000122686769326569762670000006239868890819121326_" gradientUnits="userSpaceOnUse" x1="381.782196" y1="-898.1624756" x2="357.4457397" y2="-940.3145752" gradientTransform="matrix(0.7071068 -0.7071068 -0.7071068 -0.7071068 -888.4906616 -322.6240845)">
			<stop  offset="0.3975166" style="stop-color:#A0278F;stop-opacity:0"/>
			<stop  offset="0.6999999" style="stop-color:#A0278F"/>
		</linearGradient>
		<path style="fill:url(#SVGID_00000122686769326569762670000006239868890819121326_);" d="M41.6507111,82.809639
			c-9.4905968,9.4906006-24.933672,9.4906006-34.4242859,0c-9.4905977-9.490593-9.4901485-24.9332199,0.0004663-34.4238243
			c9.4905949-9.4905968,24.9327679-9.4905968,34.4233704,0l-8.3055191,8.3055267
			c-4.9106846-4.9106789-12.9016705-4.9106789-17.812336,0c-4.9111328,4.9111099-4.9111328,12.9021034-0.0004492,17.8127785
			c4.9111156,4.9111252,12.9021015,4.9111252,17.8132343,0L41.6507111,82.809639z"/>
		
			<linearGradient id="SVGID_00000109715070018773790880000000856585539259329666_" gradientUnits="userSpaceOnUse" x1="371.0243225" y1="-938.5212402" x2="429.3855286" y2="-938.5212402" gradientTransform="matrix(0.7071068 -0.7071068 -0.7071068 -0.7071068 -888.4906616 -322.6240845)">
			<stop  offset="9.590021e-08" style="stop-color:#A0278F"/>
			<stop  offset="0.5499999" style="stop-color:#A0278F;stop-opacity:0"/>
		</linearGradient>
		<polygon style="fill:url(#SVGID_00000109715070018773790880000000856585539259329666_);" points="61.5534286,46.2958908 
			61.5349464,46.3143616 33.345211,74.504097 41.6507301,82.8096161 69.8404541,54.619873 69.8589478,54.6014023 
			82.918335,41.5420303 74.6128006,33.2365036 		"/>
	</g>
</g>
</svg>
